<mxfile host="app.diagrams.net" agent="Mozilla/5.0 (X11; Linux x86_64; rv:132.0) Gecko/20100101 Firefox/132.0" version="24.8.6">
  <diagram name="Page-1" id="JXVjJIkiIPtWO8jmsHFb">
    <mxGraphModel dx="819" dy="431" grid="1" gridSize="10" guides="1" tooltips="1" connect="1" arrows="1" fold="1" page="1" pageScale="1" pageWidth="827" pageHeight="1169" math="0" shadow="0">
      <root>
        <mxCell id="0" />
        <mxCell id="1" parent="0" />
        <mxCell id="U82ijriC3R9If_HyH0R4-5" value="&lt;div&gt;&lt;b&gt;2. Define Inputs and Outputs&lt;/b&gt;&lt;br&gt;&lt;/div&gt;&lt;div&gt;&lt;br&gt;&lt;/div&gt;&lt;div&gt;&lt;ul&gt;&lt;li&gt;&lt;b&gt;Input: &lt;/b&gt;Stack A, an array of int.&lt;/li&gt;&lt;/ul&gt;&lt;/div&gt;&lt;ul&gt;&lt;li&gt;&lt;b&gt;Output:&lt;/b&gt; Operations necessary to sort Stack A&lt;/li&gt;&lt;/ul&gt;" style="rounded=0;whiteSpace=wrap;html=1;perimeterSpacing=0;spacing=16;align=left;" vertex="1" parent="1">
          <mxGeometry x="260" y="570" width="369" height="140" as="geometry" />
        </mxCell>
        <mxCell id="U82ijriC3R9If_HyH0R4-7" value="&lt;p style=&quot;font-size: 8px;&quot;&gt;&lt;font style=&quot;font-size: 8px;&quot;&gt;&lt;b&gt;1. Understand Requirements&lt;/b&gt;&lt;/font&gt;&lt;/p&gt;&lt;div style=&quot;font-size: 8px;&quot; align=&quot;left&quot;&gt;&lt;p&gt;&lt;font style=&quot;font-size: 8px;&quot;&gt;A program that sorts a given array of int with the pre-defined operations given.&lt;br&gt;&lt;/font&gt;&lt;/p&gt;&lt;/div&gt;" style="text;html=1;align=left;verticalAlign=middle;whiteSpace=wrap;rounded=0;spacing=0;fontSize=16;" vertex="1" parent="1">
          <mxGeometry x="40" y="40" width="280" height="40" as="geometry" />
        </mxCell>
        <mxCell id="U82ijriC3R9If_HyH0R4-8" value="&lt;div style=&quot;font-size: 8px;&quot;&gt;&lt;font style=&quot;font-size: 8px;&quot;&gt;&lt;b&gt;2. Define Input and Output&lt;br&gt;&lt;/b&gt;&lt;/font&gt;&lt;/div&gt;" style="text;html=1;align=left;verticalAlign=middle;whiteSpace=wrap;rounded=0;spacing=0;fontSize=16;" vertex="1" parent="1">
          <mxGeometry x="40" y="100" width="110" height="20" as="geometry" />
        </mxCell>
        <mxCell id="U82ijriC3R9If_HyH0R4-10" style="edgeStyle=orthogonalEdgeStyle;rounded=0;orthogonalLoop=1;jettySize=auto;html=1;exitX=0.5;exitY=1;exitDx=0;exitDy=0;" edge="1" parent="1">
          <mxGeometry relative="1" as="geometry">
            <mxPoint x="65" y="150" as="sourcePoint" />
            <mxPoint x="65" y="150" as="targetPoint" />
          </mxGeometry>
        </mxCell>
        <mxCell id="U82ijriC3R9If_HyH0R4-11" value="&lt;div&gt;&lt;b&gt;2. Define Inputs and Outputs&lt;/b&gt;&lt;br&gt;&lt;/div&gt;&lt;div&gt;&lt;br&gt;&lt;/div&gt;&lt;div&gt;&lt;ul&gt;&lt;li&gt;&lt;b&gt;Input: &lt;/b&gt;Stack A, an array of int.&lt;/li&gt;&lt;/ul&gt;&lt;/div&gt;&lt;ul&gt;&lt;li&gt;&lt;b&gt;Output:&lt;/b&gt; Operations necessary to sort Stack A&lt;/li&gt;&lt;/ul&gt;" style="rounded=0;whiteSpace=wrap;html=1;perimeterSpacing=0;spacing=16;align=left;" vertex="1" parent="1">
          <mxGeometry x="458" y="570" width="369" height="140" as="geometry" />
        </mxCell>
        <mxCell id="U82ijriC3R9If_HyH0R4-12" value="&lt;div style=&quot;font-size: 8px;&quot;&gt;&lt;font style=&quot;font-size: 8px;&quot;&gt;&lt;b&gt;Stack A&lt;/b&gt;&lt;/font&gt;&lt;/div&gt;&lt;div style=&quot;font-size: 8px;&quot;&gt;&lt;font style=&quot;font-size: 8px;&quot;&gt;&lt;b&gt;&lt;br&gt;&lt;/b&gt;&lt;/font&gt;&lt;/div&gt;&lt;div style=&quot;font-size: 8px;&quot;&gt;&lt;font style=&quot;font-size: 8px;&quot;&gt;An Int array.&lt;/font&gt;&lt;/div&gt;&lt;div style=&quot;font-size: 8px;&quot;&gt;&lt;br&gt;&lt;/div&gt;&lt;div style=&quot;font-size: 8px;&quot;&gt;&lt;br&gt;&lt;br&gt;&lt;/div&gt;" style="rounded=0;whiteSpace=wrap;html=1;fontSize=16;" vertex="1" parent="1">
          <mxGeometry x="303" y="130" width="222" height="150" as="geometry" />
        </mxCell>
        <mxCell id="U82ijriC3R9If_HyH0R4-14" value="&lt;p style=&quot;font-size: 8px;&quot;&gt;Input&lt;br&gt;&lt;/p&gt;" style="rounded=0;whiteSpace=wrap;html=1;" vertex="1" parent="1">
          <mxGeometry x="40" y="130" width="60" height="20" as="geometry" />
        </mxCell>
      </root>
    </mxGraphModel>
  </diagram>
</mxfile>
